<?xml version="1.0" encoding="UTF-8" standalone="no"?>
<svg
   xmlns:dc="http://purl.org/dc/elements/1.1/"
   xmlns:cc="http://creativecommons.org/ns#"
   xmlns:rdf="http://www.w3.org/1999/02/22-rdf-syntax-ns#"
   xmlns:svg="http://www.w3.org/2000/svg"
   xmlns="http://www.w3.org/2000/svg"
   width="280"
   height="280"
   viewBox="0 0 74.083331 74.083338"
   version="1.1"
   id="svg8963">
  <defs
     id="defs8957" />
  <metadata
     id="metadata8960">
    <rdf:RDF>
      <cc:Work
         rdf:about="">
        <dc:format>image/svg+xml</dc:format>
        <dc:type
           rdf:resource="http://purl.org/dc/dcmitype/StillImage" />
        <dc:title></dc:title>
      </cc:Work>
    </rdf:RDF>
  </metadata>
  <g
     id="layer1">
    <circle
       style="fill:#ffffff;stroke:none;stroke-width:0.911373;stroke-linecap:round;stroke-linejoin:round;stroke-miterlimit:4;stroke-dasharray:none;stroke-opacity:1"
       id="path8875-3"
       cx="36.243103"
       cy="38.0471"
       r="33.656425" />
    <path
       id="path8875"
       style="fill:#4d4d4d;stroke:none;stroke-width:0.858642;stroke-linecap:round;stroke-linejoin:round;stroke-miterlimit:4;stroke-dasharray:none;stroke-opacity:1"
       d="M 36.144039,6.5255236 A 31.709203,31.709203 0 0 0 4.4348751,38.234692 31.709203,31.709203 0 0 0 36.144039,69.943953 31.709203,31.709203 0 0 0 67.853208,38.234692 31.709203,31.709203 0 0 0 36.144039,6.5255236 Z m 1.692001,2.558437 c 0.08602,5.07e-4 0.202863,0.03897 0.361734,0.07958 0.250622,0.06766 0.277523,0.101551 0.331231,0.487229 0.0895,0.6766024 0.06264,3.9107844 -0.03582,3.9107844 -0.259553,0 -0.796613,-0.230089 -0.84137,-0.358638 -0.02688,-0.08119 -0.05368,-1.041913 -0.05368,-2.131254 0,-1.6492404 -0.0201,-1.9892824 0.237898,-1.9877014 z m -6.891629,0.08762 c 0.0537,-0.0067 0.125288,0.134741 0.152152,0.31001 0.02682,0.182004 0.07161,0.5932654 0.09847,0.9303054 0.02688,0.330306 0.08947,1.085248 0.14318,1.671711 0.107401,1.1864 0.08953,1.260611 -0.420641,1.260611 -0.268514,0 -0.304325,-0.02026 -0.34012,-0.222482 -0.0895,-0.397713 -0.402723,-3.7142394 -0.357982,-3.7681704 0.04476,-0.047185 0.510134,-0.168499 0.724946,-0.181983 z m -5.611587,1.2338654 c 0.08601,5.07e-4 0.202951,0.03897 0.361822,0.07958 0.250627,0.06767 0.277435,0.101551 0.331143,0.487229 0.0895,0.676602 0.06264,3.910783 -0.03582,3.910783 -0.259553,0 -0.79652,-0.230089 -0.841277,-0.358638 -0.02688,-0.08119 -0.05368,-1.041912 -0.05368,-2.131253 0,-1.64924 -0.02021,-1.989288 0.23781,-1.987701 z m 16.327975,0.946673 0.456451,0.05368 c 0.259558,0.03581 0.483378,0.08059 0.510232,0.107452 0.0537,0.0537 0.179007,4.394684 0.187968,6.596493 l 0.0089,1.324676 -0.420641,-0.06266 c -0.241666,-0.02688 -0.438534,-0.0537 -0.44748,-0.06266 -0.02687,-0.01788 -0.29542,-7.93904 -0.29542,-7.2946 z m 6.153789,1.087041 v 0.698102 c 0,1.047204 0.07165,3.320599 0.170103,5.477662 0.05371,1.056151 0.116325,2.568779 0.143177,3.356415 0.09845,2.792547 0.423903,2.066222 0.438593,2.720967 l 0.0448,0.653407 -0.402779,-0.04481 c -0.223763,-0.01788 -0.429636,-0.07162 -0.465433,-0.09847 -0.02685,-0.03582 -0.0895,-0.653355 -0.125312,-1.378348 -0.161109,-3.186365 -0.689208,-7.491514 -0.742898,-9.299511 l -0.05368,-1.98705 0.250625,-0.03571 c 0.134258,-0.01788 0.357945,-0.04481 0.501158,-0.05378 z m -27.665593,2.833655 c 0.06735,-0.0026 0.113613,0.02109 0.141025,0.07201 0.0537,0.08056 0.474308,5.01228 0.99343,11.465551 0.170065,2.192869 -0.06257,0.170024 -0.03571,0.420636 0.04476,0.456478 0.03576,0.474396 -0.250628,0.653408 -0.161109,0.09845 -0.322274,0.17899 -0.358074,0.17899 -0.02688,0 -0.08049,-0.232693 -0.107355,-0.519111 -0.125293,-1.163556 -0.205834,-2.756788 -0.545954,-6.820287 -0.196904,-2.389778 -0.375932,-4.528887 -0.402781,-4.761601 -0.04476,-0.393823 -0.03587,-0.429618 0.196853,-0.554932 0.161104,-0.08559 0.282619,-0.131557 0.369207,-0.134663 z m 31.294705,0.02377 c 0.01317,-4.34e-4 0.02745,-3.83e-4 0.04292,4.6e-5 0.07427,0.0026 0.176239,0.01587 0.317214,0.03938 0.259551,0.0537 0.474343,0.0984 0.483292,0.107354 0.009,0.0089 0.0358,2.71198 0.06265,6.005751 0.0358,3.302717 0.08051,6.265397 0.107363,6.587614 0.02685,0.331164 0.01792,0.61755 -0.02684,0.635448 -0.03581,0.02688 -0.259542,0.02688 -0.483303,0 l -0.411755,-0.03582 -0.06265,-2.604543 c -0.0358,-1.441022 -0.08059,-3.034233 -0.09848,-3.553355 -0.07161,-1.584233 -0.134222,-6.963493 -0.08051,-7.097753 0.01957,-0.05384 0.0579,-0.08093 0.150095,-0.08416 z m -34.169602,0.857081 c 0.04264,-0.0041 0.06489,0.03359 0.0923,0.104088 0.03582,0.0895 0.187958,1.575308 0.340115,3.302738 0.161109,1.718488 0.420688,4.618457 0.590748,6.444346 l 0.304304,3.311627 -0.349004,0.349092 -0.34012,0.349103 -0.06265,-0.707084 c -0.03582,-0.393823 -0.214822,-2.219801 -0.402779,-4.063598 -0.187963,-1.843792 -0.456488,-4.519966 -0.590748,-5.943086 l -0.250622,-2.577704 0.349097,-0.322171 c 0.176216,-0.166138 0.264572,-0.241743 0.319359,-0.247351 z m 15.433475,0.129056 c 0.473688,0.0021 0.945551,0.03349 1.359365,0.09576 1.0377,0.156117 1.942226,0.445335 2.837583,0.9045 0.57854,0.298449 0.854011,0.505059 1.496834,1.12033 0.955045,0.913725 1.542764,1.712731 2.093753,2.84226 0.803528,1.643782 1.115797,3.099244 1.510674,7.002084 0.179074,1.74939 0.509002,4.714095 0.559511,6.013514 0.0138,0.37651 0.04584,0.996401 0.07341,1.3775 0.05049,0.808123 -0.119743,0.198909 -0.1255,0.319173 -1.390116,0.809033 -6.79133,1.22833 -8.809673,0.277652 l 0.0092,-0.527995 c 0,-0.28927 0.02755,-0.964218 0.05508,-1.49225 0.03949,-0.984255 -0.03587,-4.441337 -0.164592,-5.30185 -0.101008,-1.028511 -0.29847,-2.277333 -0.408667,-2.552825 -0.02295,-0.05969 0.08269,-0.110315 0.537252,-0.266431 0.83108,-0.289271 1.551881,-0.651919 1.662082,-0.830993 0.197437,-0.339774 -0.156111,-0.826501 -0.606087,-0.826501 -0.07806,0 -0.312191,0.08267 -0.527995,0.179084 -1.028516,0.472933 -3.090117,1.028439 -4.279339,1.152409 -0.821891,0.08724 -2.098415,0.0368 -2.984588,-0.123908 -0.482122,-0.08723 -1.345292,-0.413251 -2.06617,-0.785171 -0.831075,-0.431603 -1.340728,-1.005528 -1.49225,-1.685081 -0.08264,-0.367321 -0.05968,-1.102008 0.04589,-1.515249 0.114797,-0.45457 0.436234,-1.115724 0.730093,-1.501418 1.308598,-1.721842 4.008355,-3.214056 6.777076,-3.737498 0.495891,-0.09298 1.10804,-0.139547 1.717068,-0.137097 z m -5.976013,3.102795 c -0.08265,1.44e-4 -0.169269,0.01742 -0.256798,0.05546 -0.477522,0.20662 -0.51431,0.854001 -0.06434,1.083578 0.326001,0.165295 0.656617,0.08727 0.826501,-0.19741 0.271192,-0.441655 -0.05905,-0.942181 -0.505364,-0.941628 z m 3.190893,0.408578 c -0.113639,-0.0036 -0.228999,0.02346 -0.334606,0.08772 -0.440787,0.270903 -0.440787,0.922842 0,1.193744 0.436203,0.261724 1.000913,-0.08264 1.000918,-0.606087 0,-0.378799 -0.325386,-0.664617 -0.666312,-0.675377 z m 27.135908,1.117063 c 0.01022,3.42e-4 0.02041,0.001 0.03049,0.0021 0.11636,0.02687 0.143282,0.662281 0.179082,5.620832 0.04476,5.200217 0.03575,5.602997 -0.107449,5.764106 -0.0895,0.09845 -0.170095,0.161139 -0.196942,0.134291 -0.06266,-0.07161 -0.152131,-11.411875 -0.08052,-11.474529 0.03132,-0.03132 0.103757,-0.04894 0.175343,-0.04688 z m -43.510443,0.512848 c 0.01,-10e-4 0.01798,0.001 0.02357,0.0071 0.02687,0.01788 0.116326,0.814547 0.205834,1.772243 0.09845,0.948745 0.295384,2.935681 0.438591,4.412504 0.152162,1.476828 0.277471,2.729929 0.277471,2.783626 0,0.107411 -0.689249,0.447542 -0.76086,0.375942 -0.04476,-0.04476 -0.939752,-7.965936 -0.939752,-8.323949 0,-0.201395 0.605689,-1.008489 0.755154,-1.027472 z m -3.7057969,4.938529 c 0.0026,0 0.0047,5.17e-4 0.0065,0.0026 0.01788,0.02682 0.1968889,1.485754 0.3937979,3.25794 0.196914,1.763251 0.716015,6.453303 1.163541,10.418358 0.447516,3.96505 0.868172,7.786899 0.948729,8.502934 0.07161,0.716036 0.196888,1.799082 0.268484,2.416663 0.125313,1.04721 0.125355,1.11879 -0.01788,1.226195 -0.214812,0.161109 -0.304305,0.143165 -0.304305,-0.04481 0,-0.08056 -0.08053,-0.760746 -0.178991,-1.494684 -0.161103,-1.226211 -0.429659,-3.302681 -1.029338,-7.965869 -0.125313,-0.939794 -0.366922,-2.81045 -0.536977,-4.161969 -0.179007,-1.35152 -0.438647,-3.365403 -0.5818589,-4.475256 -0.143201,-1.109854 -0.384825,-3.007395 -0.536977,-4.233606 -0.161109,-1.21726 -0.259527,-2.300228 -0.232668,-2.41657 0.06068,-0.234115 0.55811,-1.031023 0.63797,-1.031777 z m 51.0578199,1.354223 0.259606,0.187875 c 0.152151,0.107416 0.322203,0.259563 0.393799,0.34012 0.107405,0.125314 0.125294,2.08552 0.152155,12.897675 0.02684,12.414281 0.0269,12.736447 -0.1342,12.736447 -0.09846,0 -0.232728,-0.05368 -0.313283,-0.116337 -0.134257,-0.09844 -0.152189,-1.181412 -0.196948,-11.787706 -0.0358,-6.426423 -0.08051,-12.262129 -0.107352,-12.969219 z m -28.533796,0.38679 c 0.03215,0.16145 0.06555,0.338683 0.0966,0.533422 0.08655,0.542874 0.172366,1.197599 0.230053,1.784962 l 0.001,0.009 0.001,0.0089 c 0.140803,0.941324 0.121588,2.390652 0.07612,3.523912 -0.03204,0.614687 -0.06406,1.386668 -0.06406,1.743808 v -0.0063 l -0.0096,0.553149 c -3.479305,-0.761516 -6.659406,-2.307288 -8.849975,-4.440469 1.910674,-1.828039 5.046231,-3.082954 8.518739,-3.710468 z m 10.625304,0.07472 c 3.122001,0.668777 5.729444,1.968873 7.035838,3.949591 -1.714645,1.761085 -3.876949,2.991886 -6.250016,3.744703 -10e-4,-0.07442 -0.0054,-0.158855 -0.01215,-0.267083 l -5.2e-5,-0.0021 -4.7e-5,-0.0021 c -0.03137,-0.433732 -0.06871,-1.153112 -0.08445,-1.583428 v -3.61e-4 -3.62e-4 c -0.05998,-1.543085 -0.333583,-2.432333 -0.538937,-4.438221 l -5.1e-5,-3.62e-4 c -0.0507,-0.501275 -0.100439,-0.963433 -0.149997,-1.400793 z m -19.553923,4.527248 c 3.28024,3.047945 8.317757,4.835248 13.418931,4.999515 0.326724,0.01049 0.653887,0.01432 0.980901,0.01132 3.693367,-0.03411 7.375183,-0.940563 10.377761,-2.905379 0.800885,6.237834 -2.018573,10.839433 -6.047928,12.816218 -0.251144,0.123211 -0.631535,-0.139707 -0.891497,-0.03711 -0.852032,0.336203 -1.699681,0.6601 -2.619598,0.763661 -1.305532,0.146974 -2.514548,-0.121779 -3.85,-0.421571 -0.323876,-0.07271 -0.750471,0.184045 -1.077599,0.06172 -4.278858,-1.600044 -8.365108,-6.035076 -10.381596,-14.308278 0.02657,-0.362576 0.05652,-0.692427 0.09062,-0.980064 z m 26.6008,0.701193 v 23.510724 c -8.236755,3.662988 -16.696251,5.971455 -26.517571,0 0,0 -0.490862,-13.053925 -0.296268,-20.50995 2.25558,6.913093 6.145044,10.861315 10.251517,12.396978 0.425132,0.15899 0.712697,0.604707 1.140904,0.712604 0.955113,0.240653 2.176569,0.36836 3.121696,0.364716 0.407229,-0.0016 3.687217,-0.52506 4.084161,-0.632833 0.3292,-0.08938 0.146442,-0.482246 0.564287,-0.665743 4.63119,-2.033853 7.702518,-7.303087 6.619873,-14.327359 0.355454,-0.266592 0.699806,-0.549329 1.031401,-0.849137 z m -32.252503,1.053468 c 0.05086,-1.81e-4 0.102037,0.02543 0.135599,0.08248 0.0537,0.08056 0.393854,2.944663 0.814531,6.856015 0.125293,1.181459 0.250612,2.318187 0.277466,2.532999 l 0.04471,0.38482 -0.223788,-0.143175 c -0.17005,-0.116357 -0.232668,-0.232735 -0.232668,-0.43859 0,-0.563883 -0.384877,-4.27829 -0.680241,-6.551711 -0.170055,-1.288865 -0.304304,-2.425593 -0.304304,-2.532999 0,-0.117474 0.08392,-0.189493 0.168706,-0.189839 z m 38.877986,0.03142 h 0.286356 c 0.152165,0 0.349131,0.06262 0.420726,0.143175 0.125309,0.125308 0.143179,0.680277 0.143179,4.788543 v 4.645264 h -0.250627 c -0.545977,0 -0.536987,0.134286 -0.572791,-4.949569 z M 14.989576,35.89286 c 0.111675,-0.0021 0.243888,0.0648 0.274654,0.157109 0.01788,0.0895 0.06267,0.626594 0.09848,1.190472 0.02687,0.563879 0.10739,1.8348 0.17899,2.81935 0.250618,3.615983 0.25961,4.072476 0.107453,4.072476 -0.170055,0 -0.188004,-0.134275 -0.384919,-2.685151 -0.07161,-1.056156 -0.205824,-2.720942 -0.295322,-3.696541 -0.08056,-0.975604 -0.134296,-1.790063 -0.107452,-1.80796 0.03075,-0.03359 0.07735,-0.04879 0.12812,-0.04977 z m -6.9432649,0.359109 c 0.03582,0 0.170081,0.877144 0.313282,1.942251 0.134254,1.074054 0.384877,3.034187 0.554932,4.367804 0.170055,1.324665 0.38484,2.98051 0.483295,3.669697 l 0.170107,1.253033 -0.187968,0.16113 c -0.107411,0.0895 -0.214828,0.125298 -0.250628,0.0895 -0.03582,-0.03582 -0.107432,-0.393782 -0.161129,-0.7876 -0.0537,-0.393823 -0.384872,-2.694144 -0.742895,-5.10182 l -0.635448,-4.385665 0.20583,-0.608702 c 0.1074,-0.331164 0.223768,-0.599626 0.250622,-0.599626 z m 55.7700479,0.404924 c 0.04474,0 0.250579,0.06272 0.447484,0.143273 0.322222,0.134255 0.358075,0.169998 0.358075,0.474318 0.0179,2.443471 -0.03576,8.02857 -0.08052,8.261285 -0.009,0.08055 -0.474444,0.08956 -0.67136,0.01793 -0.125302,-0.04476 -0.143171,-0.528103 -0.143171,-4.475251 0,-2.828342 0.03578,-4.421579 0.08949,-4.421579 z m -10.9989,9.553131 0.250531,0.05368 c 0.134257,0.03582 0.277512,0.08954 0.322267,0.134291 0.04475,0.03582 0.08952,0.54594 0.09847,1.127726 0.04475,1.978041 0.05364,14.105921 0.0089,14.141721 -0.0179,0.01788 -0.178965,-0.02688 -0.357981,-0.09847 l -0.32217,-0.134198 v -7.616859 z m -37.166253,1.287077 c 0.0895,0 0.205927,0.0447 0.268582,0.107354 0.06265,0.06265 0.107354,0.286469 0.107354,0.510227 0,0.232715 0.107431,1.440976 0.223789,2.694036 0.34012,3.428026 0.366974,3.893496 0.214806,3.803993 -0.232704,-0.13426 -0.438544,-0.3401 -0.393797,-0.393798 0.01788,-0.03581 -0.01799,-0.483352 -0.08959,-0.993527 -0.06265,-0.519127 -0.143196,-1.360471 -0.178991,-1.879597 -0.03582,-0.519127 -0.116368,-1.467903 -0.187968,-2.103381 -0.17006,-1.566331 -0.161098,-1.745307 0.03582,-1.745307 z m 41.878947,0.783858 c 0.02259,-1.81e-4 0.04413,1.4e-4 0.06425,10e-4 0.286514,0.0052 0.286452,0.0052 0.266059,0.425127 -0.01171,0.241376 -0.0137,1.57643 -0.01029,2.983471 0.0034,1.407042 -0.0025,3.190061 -0.0041,3.960631 -0.01292,1.558584 0.0076,1.50576 -0.593088,1.512453 -0.29545,-0.0054 -0.295497,-0.0053 -0.291676,-0.453185 -0.0057,-0.251186 -0.01269,-1.031152 -0.03161,-1.748956 -0.01,-0.717363 -0.04223,-2.269198 -0.05648,-3.45274 -0.01424,-1.183542 -0.04677,-2.359006 -0.06144,-2.61062 -0.03195,-0.449599 -0.02212,-0.467047 0.223604,-0.544736 0.127438,-0.04088 0.336671,-0.07093 0.494792,-0.07257 z m -37.890728,1.864636 c 0.111354,0.0064 0.15748,0.15748 0.185627,0.511534 0.04744,0.736817 0.454234,5.629102 0.668555,8.030958 0.316444,3.714541 0.32843,4.243766 0.123913,4.010566 -0.02563,-0.02801 -0.175321,-1.280188 -0.322636,-2.783063 -0.960555,-9.701661 -0.954394,-9.638712 -0.834926,-9.705005 0.06217,-0.03752 0.11351,-0.05983 0.156272,-0.06433 0.008,-10e-4 0.01576,-10e-4 0.02321,-5.17e-4 z m -6.992451,3.836066 0.313188,0.358075 c 0.179012,0.196909 0.34011,0.438518 0.366959,0.536967 0.05371,0.223763 0.313282,2.649393 0.313282,2.944762 0,0.250612 -0.322218,0.483233 -0.465434,0.340027 -0.04476,-0.04476 -0.161031,-0.805508 -0.250529,-1.682647 -0.09846,-0.886096 -0.19693,-1.807956 -0.223789,-2.049616 z m 35.214186,5.791782 h 0.205829 c 0.107405,0 0.313247,0.07169 0.456455,0.152245 l 0.259603,0.152152 0.009,1.933275 c 0.009,1.056145 0.02684,2.237631 0.02684,2.622488 0.0179,0.80554 -0.08057,0.9398 -0.563907,0.76974 l -0.277465,-0.0985 v -0.769731 c 0,-0.429628 -0.02684,-1.673742 -0.06265,-2.774649 z m -20.416536,1.00391 h 0.277466 c 0.259574,0 0.277502,0.01793 0.322264,0.465434 0.06265,0.554927 0.286433,3.213209 0.375941,4.466276 0.0537,0.84134 0.05363,0.86821 -0.143273,0.93087 -0.107406,0.0358 -0.232683,0.0268 -0.268489,-0.0179 -0.06265,-0.0627 -0.259584,-2.049645 -0.501244,-5.110702 z m 16.253341,0.446539 c 0.05034,0.0021 0.142151,0.04036 0.325628,0.116435 l 0.304305,0.125314 0.06266,1.199351 c 0.02682,0.653387 0.04476,2.067521 0.02682,3.132631 l -0.02682,1.95123 -0.375941,-0.18797 -0.375941,-0.17899 -0.02682,-2.971594 c -0.01793,-1.637937 -0.0089,-3.025283 0.009,-3.087927 0.01793,-0.06714 0.02682,-0.100713 0.07715,-0.09848 z m -5.64272,2.534033 c 0.116352,0 0.268556,0.05375 0.349102,0.107447 0.09845,0.08951 0.161094,0.447521 0.241651,1.414171 0.13426,1.74534 0.152167,1.61101 -0.214812,1.61101 -0.375915,0 -0.366964,0.0269 -0.492267,-1.54836 -0.125304,-1.602129 -0.12533,-1.584268 0.116326,-1.584268 z m -5.127526,0.62984 c 0.01235,-5.17e-4 0.02569,-5.17e-4 0.04,0 0.03282,0.0021 0.07083,0.0068 0.114465,0.01132 0.259563,0.02687 0.295302,0.0626 0.349005,0.384818 0.02688,0.19691 0.08063,0.93084 0.116424,1.62898 0.06265,1.34256 0.03571,1.441 -0.331236,1.16353 -0.107411,-0.0806 -0.178939,-0.42065 -0.286345,-1.441 -0.154189,-1.51249 -0.18788,-1.73608 -0.0026,-1.747828 z" />
  </g>
</svg>
